<mxfile host="app.diagrams.net" agent="Mozilla/5.0 (Windows NT 10.0; Win64; x64) AppleWebKit/537.36 (KHTML, like Gecko) Chrome/132.0.0.0 Safari/537.36 Edg/132.0.0.0" version="26.0.10">
  <diagram name="Whole" id="AuyXfq2_moRyz8LbtVFH">
    <mxGraphModel dx="4267" dy="1424" grid="1" gridSize="10" guides="1" tooltips="1" connect="1" arrows="1" fold="1" page="1" pageScale="1" pageWidth="1920" pageHeight="1200" math="0" shadow="0">
      <root>
        <mxCell id="0" />
        <mxCell id="1" parent="0" />
        <mxCell id="g120J7WL0OqZ0HNRY8yo-60" value="" style="whiteSpace=wrap;html=1;fillColor=none;strokeColor=#D5EDFA;strokeWidth=5;" vertex="1" parent="1">
          <mxGeometry x="-600" y="210" width="1750" height="810" as="geometry" />
        </mxCell>
        <mxCell id="g120J7WL0OqZ0HNRY8yo-49" value="" style="whiteSpace=wrap;html=1;fillColor=none;dashed=1;strokeColor=#9673a6;strokeWidth=3;" vertex="1" parent="1">
          <mxGeometry x="250" y="419" width="530" height="381" as="geometry" />
        </mxCell>
        <mxCell id="g120J7WL0OqZ0HNRY8yo-4" value="" style="image;sketch=0;aspect=fixed;html=1;points=[];align=center;fontSize=12;image=img/lib/mscae/Exchange_On_premises_Access.svg;" vertex="1" parent="1">
          <mxGeometry x="-907.7" y="50" width="36.2" height="62.42" as="geometry" />
        </mxCell>
        <mxCell id="g120J7WL0OqZ0HNRY8yo-10" value="VNET" style="image;aspect=fixed;html=1;points=[];align=center;fontSize=12;image=img/lib/azure2/networking/Virtual_Networks.svg;" vertex="1" parent="1">
          <mxGeometry x="-517.32" y="868" width="67" height="40" as="geometry" />
        </mxCell>
        <mxCell id="g120J7WL0OqZ0HNRY8yo-11" value="" style="image;aspect=fixed;html=1;points=[];align=center;fontSize=12;image=img/lib/azure2/other/Azure_A.svg;" vertex="1" parent="1">
          <mxGeometry x="-740.2" y="50" width="55.59" height="52.42" as="geometry" />
        </mxCell>
        <mxCell id="g120J7WL0OqZ0HNRY8yo-14" value="IoT Central" style="image;aspect=fixed;html=1;points=[];align=center;fontSize=12;image=img/lib/azure2/iot/IoT_Central_Applications.svg;" vertex="1" parent="1">
          <mxGeometry x="-346.3" y="386.75" width="97.82" height="112.5" as="geometry" />
        </mxCell>
        <mxCell id="g120J7WL0OqZ0HNRY8yo-15" value="Private VNET" style="image;aspect=fixed;html=1;points=[];align=center;fontSize=12;image=img/lib/azure2/networking/Private_Endpoint.svg;" vertex="1" parent="1">
          <mxGeometry x="-510" y="470" width="52.36" height="48" as="geometry" />
        </mxCell>
        <mxCell id="g120J7WL0OqZ0HNRY8yo-16" value="On-Prem" style="text;strokeColor=none;align=center;fillColor=none;html=1;verticalAlign=middle;whiteSpace=wrap;rounded=0;fontStyle=1;fontSize=17;" vertex="1" parent="1">
          <mxGeometry x="-927.2" y="122.42000000000002" width="75.2" height="30" as="geometry" />
        </mxCell>
        <mxCell id="g120J7WL0OqZ0HNRY8yo-20" value="Azure" style="text;strokeColor=none;align=center;fillColor=none;html=1;verticalAlign=middle;whiteSpace=wrap;rounded=0;fontStyle=1;fontSize=17;" vertex="1" parent="1">
          <mxGeometry x="-750" y="122.42000000000002" width="75.2" height="30" as="geometry" />
        </mxCell>
        <mxCell id="g120J7WL0OqZ0HNRY8yo-21" value="VPN/Express Route" style="image;sketch=0;aspect=fixed;html=1;points=[];align=center;fontSize=12;image=img/lib/mscae/Express_Route.svg;" vertex="1" parent="1">
          <mxGeometry x="-760.44" y="516" width="75.83" height="45.5" as="geometry" />
        </mxCell>
        <mxCell id="g120J7WL0OqZ0HNRY8yo-25" value="Blob Storage&lt;div&gt;&lt;br&gt;&lt;/div&gt;" style="verticalLabelPosition=bottom;html=1;verticalAlign=top;align=center;strokeColor=none;fillColor=#00BEF2;shape=mxgraph.azure.storage_blob;" vertex="1" parent="1">
          <mxGeometry x="-346.30000000000007" y="560.25" width="77.78" height="70" as="geometry" />
        </mxCell>
        <mxCell id="g120J7WL0OqZ0HNRY8yo-26" value="Data Factory" style="image;aspect=fixed;html=1;points=[];align=center;fontSize=12;image=img/lib/azure2/databases/Data_Factory.svg;" vertex="1" parent="1">
          <mxGeometry x="-150" y="557.25" width="68" height="68" as="geometry" />
        </mxCell>
        <mxCell id="g120J7WL0OqZ0HNRY8yo-27" value="Azure SQL" style="image;aspect=fixed;html=1;points=[];align=center;fontSize=12;image=img/lib/azure2/databases/SQL_Database.svg;" vertex="1" parent="1">
          <mxGeometry x="50" y="641" width="59.25" height="79" as="geometry" />
        </mxCell>
        <mxCell id="g120J7WL0OqZ0HNRY8yo-28" value="ACA Environment" style="image;aspect=fixed;html=1;points=[];align=center;fontSize=12;image=img/lib/azure2/other/Container_App_Environments.svg;" vertex="1" parent="1">
          <mxGeometry x="210" y="370" width="68" height="68" as="geometry" />
        </mxCell>
        <mxCell id="g120J7WL0OqZ0HNRY8yo-29" value="Frontend&lt;div&gt;Microservice&lt;/div&gt;" style="image;aspect=fixed;html=1;points=[];align=center;fontSize=12;image=img/lib/azure2/other/Worker_Container_App.svg;" vertex="1" parent="1">
          <mxGeometry x="610" y="567.25" width="68" height="66" as="geometry" />
        </mxCell>
        <mxCell id="g120J7WL0OqZ0HNRY8yo-31" value="Azure APIM" style="image;aspect=fixed;html=1;points=[];align=center;fontSize=12;image=img/lib/azure2/app_services/API_Management_Services.svg;" vertex="1" parent="1">
          <mxGeometry x="840" y="565.25" width="65" height="60" as="geometry" />
        </mxCell>
        <mxCell id="g120J7WL0OqZ0HNRY8yo-32" value="Azure Front Door" style="image;aspect=fixed;html=1;points=[];align=center;fontSize=12;image=img/lib/azure2/networking/Front_Doors.svg;" vertex="1" parent="1">
          <mxGeometry x="1001" y="490" width="68" height="60" as="geometry" />
        </mxCell>
        <mxCell id="g120J7WL0OqZ0HNRY8yo-33" value="Internet" style="image;aspect=fixed;html=1;points=[];align=center;fontSize=12;image=img/lib/azure2/networking/Public_IP_Addresses_Classic.svg;" vertex="1" parent="1">
          <mxGeometry x="1190" y="489.71" width="64" height="52" as="geometry" />
        </mxCell>
        <mxCell id="g120J7WL0OqZ0HNRY8yo-34" value="Key Vault" style="image;aspect=fixed;html=1;points=[];align=center;fontSize=12;image=img/lib/azure2/security/Key_Vaults.svg;" vertex="1" parent="1">
          <mxGeometry x="570" y="900" width="68" height="68" as="geometry" />
        </mxCell>
        <mxCell id="g120J7WL0OqZ0HNRY8yo-35" value="Manage Identity" style="image;aspect=fixed;html=1;points=[];align=center;fontSize=12;image=img/lib/azure2/identity/Entra_Managed_Identities.svg;" vertex="1" parent="1">
          <mxGeometry x="-90" y="1091.71" width="68" height="60.440000000000005" as="geometry" />
        </mxCell>
        <mxCell id="g120J7WL0OqZ0HNRY8yo-36" value="Entra ID" style="image;aspect=fixed;html=1;points=[];align=center;fontSize=12;image=img/lib/azure2/other/Entra_Identity.svg;" vertex="1" parent="1">
          <mxGeometry x="820" y="1103.9299999999998" width="68" height="60.440000000000005" as="geometry" />
        </mxCell>
        <mxCell id="g120J7WL0OqZ0HNRY8yo-37" value="Service Bus" style="image;aspect=fixed;html=1;points=[];align=center;fontSize=12;image=img/lib/azure2/integration/Service_Bus.svg;" vertex="1" parent="1">
          <mxGeometry x="428" y="908" width="68" height="60" as="geometry" />
        </mxCell>
        <mxCell id="g120J7WL0OqZ0HNRY8yo-38" value="User" style="image;aspect=fixed;html=1;points=[];align=center;fontSize=12;image=img/lib/azure2/azure_stack/User_Subscriptions.svg;" vertex="1" parent="1">
          <mxGeometry x="1180" y="1101.15" width="68" height="66" as="geometry" />
        </mxCell>
        <mxCell id="g120J7WL0OqZ0HNRY8yo-40" value="Azure Firewall" style="image;sketch=0;aspect=fixed;html=1;points=[];align=center;fontSize=12;image=img/lib/mscae/Azure_Firewall.svg;" vertex="1" parent="1">
          <mxGeometry x="1010" y="703.25" width="50" height="50" as="geometry" />
        </mxCell>
        <mxCell id="g120J7WL0OqZ0HNRY8yo-41" value="Private Link" style="image;aspect=fixed;html=1;points=[];align=center;fontSize=12;image=img/lib/azure2/preview/Private_Link_Hub.svg;" vertex="1" parent="1">
          <mxGeometry x="290" y="1091.71" width="60" height="69" as="geometry" />
        </mxCell>
        <mxCell id="g120J7WL0OqZ0HNRY8yo-42" value="API&lt;div&gt;Microservice&lt;/div&gt;" style="image;aspect=fixed;html=1;points=[];align=center;fontSize=12;image=img/lib/azure2/other/Worker_Container_App.svg;" vertex="1" parent="1">
          <mxGeometry x="360" y="499.25" width="68" height="66" as="geometry" />
        </mxCell>
        <mxCell id="g120J7WL0OqZ0HNRY8yo-43" value="Container Registry" style="image;aspect=fixed;html=1;points=[];align=center;fontSize=12;image=img/lib/azure2/containers/Container_Registries.svg;" vertex="1" parent="1">
          <mxGeometry x="712" y="908" width="68" height="61" as="geometry" />
        </mxCell>
        <mxCell id="g120J7WL0OqZ0HNRY8yo-47" value="Azure Subscription" style="image;aspect=fixed;html=1;points=[];align=center;fontSize=12;image=img/lib/azure2/general/Subscriptions.svg;" vertex="1" parent="1">
          <mxGeometry x="-614.17" y="90" width="44" height="71" as="geometry" />
        </mxCell>
        <mxCell id="g120J7WL0OqZ0HNRY8yo-48" value="IoT Device Data" style="image;aspect=fixed;html=1;points=[];align=center;fontSize=12;image=img/lib/azure2/other/Log_Analytics_Query_Pack.svg;" vertex="1" parent="1">
          <mxGeometry x="-920" y="510.25" width="68" height="68" as="geometry" />
        </mxCell>
        <mxCell id="g120J7WL0OqZ0HNRY8yo-54" value="API&lt;div&gt;Microservice&lt;/div&gt;" style="image;aspect=fixed;html=1;points=[];align=center;fontSize=12;image=img/lib/azure2/other/Worker_Container_App.svg;" vertex="1" parent="1">
          <mxGeometry x="360" y="650" width="68" height="66" as="geometry" />
        </mxCell>
        <mxCell id="g120J7WL0OqZ0HNRY8yo-58" value="Azure SQL" style="image;aspect=fixed;html=1;points=[];align=center;fontSize=12;image=img/lib/azure2/databases/SQL_Database.svg;" vertex="1" parent="1">
          <mxGeometry x="50" y="499.25" width="59.25" height="79" as="geometry" />
        </mxCell>
      </root>
    </mxGraphModel>
  </diagram>
</mxfile>
